<?xml version="1.0" standalone="no"?>
<!DOCTYPE svg PUBLIC "-//W3C//DTD SVG 20010904//EN"
 "http://www.w3.org/TR/2001/REC-SVG-20010904/DTD/svg10.dtd">
<svg version="1.0" xmlns="http://www.w3.org/2000/svg"
 width="700.000000pt" height="700.000000pt" viewBox="0 0 700.000000 700.000000"
 preserveAspectRatio="xMidYMid meet">
<metadata>
Created by potrace 1.14, written by Peter Selinger 2001-2017
</metadata>
<g transform="translate(0.000000,700.000000) scale(0.100000,-0.100000)"
fill="#000000" stroke="none">
<path d="M3099 6826 c-2 -2 -41 -7 -86 -10 -45 -4 -90 -8 -100 -10 -10 -2 -40
-7 -68 -10 -326 -43 -733 -175 -1040 -336 -789 -414 -1370 -1098 -1642 -1930
-30 -92 -77 -265 -89 -325 -2 -11 -6 -31 -9 -45 -9 -44 -13 -63 -24 -145 -7
-44 -14 -93 -16 -110 -21 -137 -28 -563 -12 -715 71 -682 324 -1292 748 -1807
120 -145 301 -328 429 -433 30 -25 57 -48 60 -51 18 -23 267 -194 379 -261
348 -208 769 -364 1136 -422 52 -8 109 -16 145 -22 185 -26 707 -26 845 0 11
2 43 7 70 10 72 9 197 34 295 58 566 138 1065 418 1465 822 149 150 184 190
295 338 211 282 369 580 486 923 37 108 95 313 110 388 2 10 5 26 8 35 3 9 7
34 11 56 8 59 61 183 105 248 22 31 65 81 97 111 32 30 91 85 130 122 40 37
88 90 106 119 35 53 71 135 63 143 -8 9 -196 3 -268 -8 -251 -38 -482 -181
-619 -381 -97 -141 -144 -270 -151 -412 l-4 -69 21 28 c52 72 50 72 50 3 1
-63 19 -128 36 -128 5 0 9 5 9 11 0 29 44 108 66 118 86 39 107 -125 31 -243
-60 -94 -157 -130 -240 -87 l-37 19 -1 -47 c-2 -140 -10 -327 -13 -336 -5 -13
-149 -11 -153 1 -2 5 -12 23 -22 40 -18 30 -21 31 -68 24 -26 -5 -104 -22
-173 -38 -148 -36 -205 -47 -325 -63 -142 -20 -479 -17 -591 5 -12 3 -39 7
-59 10 -370 59 -729 299 -873 582 -19 38 -28 43 -149 94 -70 29 -194 86 -275
126 -82 41 -148 71 -148 68 0 -16 59 -137 104 -214 272 -468 747 -785 1321
-881 33 -5 71 -12 85 -14 41 -8 210 -18 290 -18 150 -1 337 22 470 57 l55 14
-35 -29 c-148 -125 -372 -181 -690 -174 -96 2 -186 6 -200 9 -13 3 -42 8 -65
12 -127 18 -353 92 -475 154 -22 11 -42 20 -44 20 -11 0 56 -115 99 -170 160
-208 429 -376 721 -449 72 -18 111 -25 214 -37 60 -7 222 -7 285 1 64 7 64 7
0 -41 -238 -179 -635 -343 -945 -393 -36 -6 -76 -13 -90 -16 -94 -19 -347 -25
-480 -11 -265 26 -478 86 -705 197 -150 73 -148 72 -242 137 -34 23 -64 42
-68 42 -9 0 2 -80 19 -127 53 -151 244 -330 451 -424 36 -16 65 -31 65 -33 0
-10 -297 5 -370 19 -13 3 -42 7 -65 10 -80 12 -307 75 -398 111 -435 173 -788
479 -990 858 -96 179 -181 453 -202 651 -4 33 -8 76 -11 95 -5 47 -5 269 0
298 7 33 -10 27 -57 -22 -155 -159 -215 -517 -137 -828 10 -40 17 -74 16 -75
-3 -4 -122 159 -176 240 -165 250 -286 561 -329 842 -6 39 -13 86 -17 105 -3
19 -7 125 -9 235 -3 179 6 313 29 425 2 14 8 41 11 60 15 75 60 219 96 311 93
231 222 433 396 619 l80 85 -25 66 c-28 78 -22 77 -150 18 -153 -71 -301 -196
-422 -359 -49 -67 -61 -78 -56 -55 10 57 17 90 22 107 3 9 6 25 8 35 34 176
184 513 337 759 91 146 236 299 409 431 243 184 583 327 855 359 33 3 69 8 80
11 42 9 345 10 435 1 106 -10 332 -53 361 -69 39 -20 10 46 -48 112 -71 80
-239 173 -383 213 -119 33 -188 40 -357 41 l-142 0 47 24 c211 108 601 234
852 276 53 9 103 17 125 21 11 3 47 7 80 10 33 3 62 7 65 9 14 8 250 19 420
19 189 0 330 -7 455 -25 39 -5 84 -12 100 -14 64 -9 236 -41 263 -49 9 -3 29
-7 43 -10 99 -17 404 -118 568 -188 154 -66 380 -186 500 -267 104 -70 105
-69 6 16 -382 325 -860 573 -1335 693 -124 31 -134 33 -255 55 -109 19 -147
24 -219 31 -33 3 -81 7 -106 10 -57 6 -476 15 -481 10z"/>
<path d="M4655 4940 c-27 -4 -69 -10 -92 -13 -23 -4 -77 -15 -120 -26 -421
-109 -737 -405 -872 -818 -59 -179 -82 -329 -87 -564 l-4 -176 148 -32 c162
-35 161 -35 282 -56 47 -8 94 -17 105 -19 61 -11 103 -19 125 -22 14 -3 49 -9
79 -14 30 -6 62 -10 70 -10 14 0 16 38 17 343 0 302 6 466 18 532 2 11 7 47
10 80 9 72 58 272 83 335 76 191 195 316 350 368 95 32 253 26 346 -13 196
-80 367 -283 553 -655 l73 -147 36 0 35 0 -5 126 c-9 217 -13 340 -20 541 -4
107 -9 198 -12 203 -6 9 -43 9 -43 -1 0 -4 -13 -22 -29 -40 -44 -48 -59 -46
-408 39 -45 11 -122 26 -170 33 -95 14 -386 18 -468 6z"/>
<path d="M827 4903 c-2 -5 -5 -23 -5 -40 l-1 -33 94 0 93 0 18 -47 c9 -27 27
-75 40 -108 12 -33 47 -127 77 -210 80 -219 221 -600 277 -750 41 -111 119
-321 296 -802 19 -51 49 -135 68 -185 19 -51 63 -172 99 -268 36 -96 84 -228
107 -292 42 -115 44 -118 74 -119 92 -2 308 0 310 3 2 1 36 98 76 213 40 116
101 293 137 395 35 102 71 205 79 230 8 25 19 54 24 65 5 11 30 83 56 161 l48
140 -40 36 c-21 20 -42 34 -45 30 -6 -7 -88 -236 -147 -414 -15 -43 -29 -78
-32 -78 -4 0 -14 24 -22 53 -9 28 -158 475 -332 991 -174 517 -316 943 -316
948 0 4 63 8 140 8 l140 0 0 40 0 40 -654 0 c-360 0 -657 -3 -659 -7z"/>
<path d="M2919 4898 c0 -7 -2 -25 -3 -40 l-2 -28 159 0 c123 0 158 -3 154 -12
-2 -7 -59 -170 -126 -363 -67 -192 -140 -399 -161 -460 -67 -188 -120 -349
-120 -360 1 -10 65 -55 80 -55 4 0 15 19 23 43 17 48 157 451 254 727 35 102
82 237 105 300 22 63 44 130 49 148 l10 32 94 0 c88 0 95 1 96 20 1 11 2 28 3
38 1 16 -21 17 -306 20 -243 2 -308 0 -309 -10z"/>
<path d="M2430 3923 c0 -17 36 -116 69 -187 202 -445 764 -790 1576 -967 77
-17 147 -32 155 -34 8 -2 47 -10 85 -19 291 -62 695 -182 695 -206 0 -4 -28
-11 -62 -15 -35 -5 -65 -9 -68 -10 -30 -9 -205 -26 -272 -27 -32 0 -58 -5 -58
-10 0 -16 56 -91 97 -129 85 -81 189 -122 304 -122 129 1 253 64 373 188 90
94 252 335 242 360 -5 13 -175 100 -291 148 -124 51 -349 118 -480 143 -22 4
-44 8 -50 10 -27 6 -91 17 -340 58 -820 136 -1064 192 -1328 307 -240 104
-448 261 -591 448 -31 40 -56 69 -56 64z"/>
<path d="M5696 2838 c-74 -151 -103 -204 -141 -263 -144 -222 -303 -370 -450
-420 -27 -9 -82 -19 -122 -22 -247 -19 -448 131 -558 417 -16 41 -29 76 -30
77 -1 2 -86 22 -385 89 -109 25 -309 80 -392 108 -49 18 -49 11 1 -98 174
-376 494 -594 971 -660 124 -18 417 -17 550 0 58 8 193 35 300 60 243 57 254
57 300 4 37 -42 69 -52 71 -22 4 47 12 278 25 705 l5 177 -34 0 -35 0 -76
-152z"/>
</g>
</svg>
