<?xml version="1.0" standalone="no"?>
<!DOCTYPE svg PUBLIC "-//W3C//DTD SVG 20010904//EN"
 "http://www.w3.org/TR/2001/REC-SVG-20010904/DTD/svg10.dtd">
<svg version="1.0" xmlns="http://www.w3.org/2000/svg"
 width="700.000000pt" height="700.000000pt" viewBox="0 0 700.000000 700.000000"
 preserveAspectRatio="xMidYMid meet">
<metadata>
Created by potrace 1.14, written by Peter Selinger 2001-2017
</metadata>
<g transform="translate(0.000000,700.000000) scale(0.100000,-0.100000)"
fill="#000000" stroke="none">
<path d="M3247 6624 c-1 -1 -49 -4 -107 -8 -671 -40 -1313 -303 -1835 -749
-93 -80 -279 -269 -364 -370 -303 -363 -525 -805 -635 -1267 -31 -131 -62
-311 -73 -421 -16 -167 -8 -627 12 -713 3 -12 7 -39 9 -61 2 -22 6 -51 10 -65
3 -14 7 -38 10 -55 2 -16 13 -70 25 -120 65 -284 183 -583 341 -862 30 -54
169 -264 179 -273 4 -3 14 -17 24 -32 34 -54 193 -236 291 -334 265 -264 528
-450 861 -610 195 -93 431 -179 590 -215 22 -5 49 -11 60 -14 57 -14 217 -43
280 -51 27 -3 61 -8 75 -10 161 -21 554 -20 692 1 13 2 46 6 73 10 98 13 121
17 239 41 375 79 767 251 1080 474 612 436 1036 1091 1205 1862 49 225 94 312
217 428 169 159 211 206 243 272 18 37 30 71 26 77 -7 12 -185 9 -255 -4 -300
-53 -531 -229 -656 -500 -39 -85 -54 -145 -59 -240 -3 -68 -3 -69 13 -46 45
66 47 66 48 9 1 -59 22 -134 34 -121 4 4 13 24 19 43 11 36 54 90 71 90 16 0
50 -38 51 -57 7 -90 -20 -173 -71 -223 -108 -105 -224 -71 -341 101 -78 116
-153 174 -333 259 -148 70 -362 147 -459 166 -12 2 -31 6 -42 8 -112 26 -186
40 -335 66 -96 16 -193 32 -215 36 -49 7 -249 40 -325 54 -30 6 -66 12 -80 14
-88 14 -304 62 -413 91 -313 85 -545 203 -730 370 -52 48 -153 162 -189 215
-16 24 -16 23 -3 -20 75 -259 259 -489 532 -667 273 -178 612 -305 1088 -408
312 -67 491 -113 665 -172 105 -35 144 -51 125 -53 -5 -1 -19 -3 -30 -6 -11
-2 -40 -6 -65 -10 -25 -3 -47 -8 -50 -9 -18 -11 -169 -20 -315 -20 -396 1
-833 119 -1270 343 -63 33 -115 55 -115 50 0 -19 74 -165 124 -243 93 -147
221 -294 341 -390 28 -22 52 -43 55 -46 27 -34 300 -187 425 -239 92 -38 293
-92 420 -111 244 -38 520 -28 750 25 l60 15 -35 -29 c-43 -36 -160 -95 -226
-114 -178 -53 -462 -66 -649 -30 -11 2 -36 7 -55 10 -37 6 -149 37 -215 59
-22 7 -82 32 -134 54 -52 23 -96 41 -99 41 -2 0 8 -21 23 -47 191 -332 594
-555 1030 -568 72 -2 154 0 183 4 28 4 52 5 52 2 -1 -3 -24 -23 -53 -43 -235
-168 -530 -294 -832 -356 -89 -18 -134 -25 -240 -38 -49 -6 -306 -5 -355 2
-105 13 -230 36 -300 55 -41 12 -82 22 -90 24 -97 21 -352 141 -465 219 -43
30 -82 53 -86 50 -11 -6 11 -105 33 -148 72 -142 201 -260 387 -354 l86 -43
-135 6 c-74 3 -144 7 -155 9 -11 2 -46 7 -77 10 -151 18 -420 102 -583 184
-245 122 -498 334 -648 543 -70 99 -182 312 -216 414 -78 236 -104 398 -103
642 1 150 -2 152 -67 76 -86 -100 -143 -286 -144 -468 -1 -113 28 -322 49
-356 3 -5 3 -9 0 -9 -8 0 -109 139 -178 244 -122 185 -229 438 -274 648 -37
175 -49 285 -49 473 0 187 12 302 49 470 50 234 199 528 372 736 72 87 209
219 266 257 21 13 38 28 38 32 0 27 -151 21 -240 -10 -174 -59 -335 -186 -473
-373 -27 -37 -51 -66 -53 -65 -5 6 46 216 69 283 113 326 281 626 445 791 310
316 685 499 1102 540 98 10 293 11 400 1 75 -6 273 -43 338 -63 19 -5 21 -3
16 12 -26 73 -142 176 -264 233 -52 24 -190 72 -190 66 0 -3 -11 0 -24 5 -42
16 -137 24 -273 25 -73 0 -133 3 -133 6 0 3 51 27 113 54 61 26 135 58 163 71
104 46 447 142 571 159 21 3 61 10 88 15 196 36 575 53 781 35 434 -37 763
-116 1116 -268 144 -61 362 -178 456 -243 35 -24 65 -44 68 -44 27 0 -283 237
-436 332 -317 198 -711 353 -1048 414 -74 13 -143 24 -187 30 -27 3 -58 8 -68
10 -43 8 -432 24 -440 18z"/>
<path d="M2190 4834 c-105 -14 -109 -15 -196 -38 -459 -119 -787 -567 -830
-1133 -26 -340 22 -631 147 -888 136 -278 354 -471 634 -559 208 -65 420 -78
664 -41 48 8 174 51 234 81 79 40 194 124 276 202 l73 70 -28 41 c-16 22 -32
41 -35 41 -3 0 -21 -14 -40 -31 -170 -156 -323 -216 -563 -223 -180 -5 -335
54 -460 177 -166 164 -274 413 -314 727 -9 75 -9 415 1 520 7 73 24 185 42
280 17 88 85 292 120 361 55 106 146 203 229 244 30 15 87 32 127 39 141 24
259 -12 347 -105 90 -95 124 -193 118 -344 -6 -137 -28 -226 -83 -326 -24 -44
-25 -52 -13 -74 22 -40 40 -41 198 -9 95 19 242 103 310 178 144 157 143 409
-4 566 -106 113 -317 214 -492 235 -26 3 -60 9 -77 12 -57 11 -291 10 -385 -3z"/>
<path d="M3328 4767 l-22 -30 30 -25 c73 -62 92 -81 140 -137 28 -33 69 -96
91 -140 34 -65 180 -474 265 -740 10 -33 23 -69 27 -80 5 -11 30 -85 56 -165
27 -80 52 -152 56 -161 6 -11 40 -21 116 -34 59 -9 117 -19 128 -21 11 -2 66
-11 121 -19 56 -8 133 -21 172 -28 l70 -13 -8 25 c-5 14 -74 224 -155 466 -80
242 -148 445 -149 450 -2 6 -6 17 -9 25 -34 88 -90 285 -92 327 -4 61 10 120
33 147 23 25 77 51 140 67 28 7 52 18 52 23 0 6 -7 29 -14 51 l-14 40 -507 1
-506 1 -21 -30z"/>
<path d="M5117 4756 c-20 -47 -21 -66 -7 -66 6 0 30 -9 52 -20 23 -11 48 -20
55 -20 26 0 93 -50 109 -82 23 -45 27 -79 14 -147 -6 -32 -105 -342 -220 -687
-115 -345 -209 -629 -207 -630 1 -1 44 -16 95 -32 65 -21 95 -27 98 -19 2 7
103 308 224 670 126 379 236 689 257 730 28 54 64 99 145 180 l108 108 -21 27
-21 27 -332 1 -332 0 -17 -40z"/>
</g>
</svg>
